# xmcd CD database file
#
# Track frame offsets:
#	187
#	20035
#	38845
#	53185
#	79302
#
# Disc length: 1439 seconds
#
# Revision: 2
# Processed by: cddbd v1.5.2PL0 Copyright (c) Steve Scherf et al.
# Submitted via: CDex 1.51
#
DISCID=3b059d05
DTITLE=Sheryl Crow - Sheryl Crow Live From Nashville
DYEAR=1900
DGENRE=Rock
TTITLE0=Can't Cry Anymore
TTITLE1=Reach Around Jerk
TTITLE2=Strong Enough
TTITLE3=Leaving Las Vegas
TTITLE4=I Shall Believe
EXTD=
EXTT0=
EXTT1=
EXTT2=
EXTT3=
EXTT4=
PLAYORDER=
